<mxfile host="65bd71144e">
    <diagram id="zLryhLtJdVB0AU0xBgOR" name="Page-1">
        <mxGraphModel dx="429" dy="228" grid="0" gridSize="10" guides="1" tooltips="1" connect="1" arrows="1" fold="1" page="0" pageScale="1" pageWidth="850" pageHeight="1100" background="#ffffff" math="0" shadow="0">
            <root>
                <mxCell id="0"/>
                <mxCell id="1" parent="0"/>
                <mxCell id="2" value="" style="shape=umlLifeline;participant=umlActor;perimeter=lifelinePerimeter;whiteSpace=wrap;html=1;container=1;collapsible=0;recursiveResize=0;verticalAlign=top;spacingTop=36;outlineConnect=0;strokeColor=#000000;fillColor=#FFFFFF;" parent="1" vertex="1">
                    <mxGeometry x="127" y="104" width="20" height="459" as="geometry"/>
                </mxCell>
                <mxCell id="6" value="" style="html=1;points=[];perimeter=orthogonalPerimeter;strokeColor=#000000;fontFamily=Arial;fontColor=#000000;fillColor=#FFFFFF;" parent="2" vertex="1">
                    <mxGeometry x="5" y="65" width="10" height="381" as="geometry"/>
                </mxCell>
                <mxCell id="3" value="" style="shape=umlLifeline;participant=umlBoundary;perimeter=lifelinePerimeter;whiteSpace=wrap;html=1;container=1;collapsible=0;recursiveResize=0;verticalAlign=top;spacingTop=36;outlineConnect=0;strokeColor=#000000;fillColor=#FFFFFF;" parent="1" vertex="1">
                    <mxGeometry x="245" y="104" width="62" height="450" as="geometry"/>
                </mxCell>
                <mxCell id="7" value="" style="html=1;points=[];perimeter=orthogonalPerimeter;strokeColor=#000000;fontFamily=Arial;fontColor=#000000;fillColor=#FFFFFF;" parent="3" vertex="1">
                    <mxGeometry x="26" y="69" width="10" height="361" as="geometry"/>
                </mxCell>
                <mxCell id="22" value="Клиент" style="text;html=1;align=center;verticalAlign=middle;resizable=0;points=[];autosize=1;strokeColor=none;fillColor=none;fontSize=14;fontFamily=Times New Roman;fontColor=#000000;" parent="3" vertex="1">
                    <mxGeometry x="4" y="5" width="62" height="29" as="geometry"/>
                </mxCell>
                <mxCell id="4" value="" style="shape=umlLifeline;participant=umlEntity;perimeter=lifelinePerimeter;whiteSpace=wrap;html=1;container=1;collapsible=0;recursiveResize=0;verticalAlign=top;spacingTop=36;outlineConnect=0;strokeColor=#000000;fillColor=#FFFFFF;fontFamily=Times New Roman;fontSize=14;" parent="1" vertex="1">
                    <mxGeometry x="417" y="104" width="56.5" height="426" as="geometry"/>
                </mxCell>
                <mxCell id="11" value="" style="html=1;points=[];perimeter=orthogonalPerimeter;strokeColor=#000000;fontFamily=Arial;fontSize=7;fontColor=#000000;fillColor=#FFFFFF;" parent="4" vertex="1">
                    <mxGeometry x="21.5" y="82" width="10" height="339" as="geometry"/>
                </mxCell>
                <mxCell id="23" value="Сервер" style="text;html=1;align=center;verticalAlign=middle;resizable=0;points=[];autosize=1;strokeColor=none;fillColor=none;fontSize=14;fontFamily=Times New Roman;fontColor=#000000;" parent="4" vertex="1">
                    <mxGeometry x="-3.5" y="5" width="60" height="29" as="geometry"/>
                </mxCell>
                <mxCell id="5" value="" style="shape=umlLifeline;participant=umlControl;perimeter=lifelinePerimeter;whiteSpace=wrap;html=1;container=1;collapsible=0;recursiveResize=0;verticalAlign=top;spacingTop=36;outlineConnect=0;strokeColor=#000000;fillColor=#FFFFFF;fontFamily=Times New Roman;fontSize=14;" parent="1" vertex="1">
                    <mxGeometry x="558" y="104" width="49.5" height="425" as="geometry"/>
                </mxCell>
                <mxCell id="13" value="" style="html=1;points=[];perimeter=orthogonalPerimeter;strokeColor=#000000;fontFamily=Arial;fontSize=7;fontColor=#000000;fillColor=#FFFFFF;" parent="5" vertex="1">
                    <mxGeometry x="20" y="81" width="10" height="322" as="geometry"/>
                </mxCell>
                <mxCell id="24" value="СУБД" style="text;html=1;align=center;verticalAlign=middle;resizable=0;points=[];autosize=1;strokeColor=none;fillColor=none;fontSize=14;fontFamily=Times New Roman;fontColor=#000000;" parent="5" vertex="1">
                    <mxGeometry x="-4.5" y="11" width="54" height="29" as="geometry"/>
                </mxCell>
                <mxCell id="8" value="&lt;font style=&quot;font-size: 14px;&quot; face=&quot;Times New Roman&quot;&gt;Выбор задачи&lt;/font&gt;" style="html=1;verticalAlign=bottom;endArrow=block;fontFamily=Arial;fontColor=#000000;strokeColor=#000000;labelBackgroundColor=none;fontSize=7;" parent="1" target="7" edge="1">
                    <mxGeometry width="80" relative="1" as="geometry">
                        <mxPoint x="142" y="189" as="sourcePoint"/>
                        <mxPoint x="222" y="189" as="targetPoint"/>
                    </mxGeometry>
                </mxCell>
                <mxCell id="10" value="Определение&lt;br style=&quot;font-size: 14px;&quot;&gt;выбранной&lt;br style=&quot;font-size: 14px;&quot;&gt;&amp;nbsp;задачи" style="edgeStyle=orthogonalEdgeStyle;align=left;spacingLeft=2;endArrow=block;rounded=0;labelBackgroundColor=none;strokeColor=#000000;fontFamily=Times New Roman;fontColor=#000000;spacing=1;html=1;fontSize=14;" parent="1" target="7" edge="1">
                    <mxGeometry x="-0.0323" relative="1" as="geometry">
                        <mxPoint x="281" y="200" as="sourcePoint"/>
                        <Array as="points">
                            <mxPoint x="305" y="200"/>
                            <mxPoint x="305" y="244"/>
                        </Array>
                        <mxPoint x="280" y="220" as="targetPoint"/>
                        <mxPoint as="offset"/>
                    </mxGeometry>
                </mxCell>
                <mxCell id="12" value="Отправка данных&lt;br style=&quot;font-size: 14px;&quot;&gt;(idtasks, topic, deadline)" style="html=1;verticalAlign=bottom;endArrow=block;fontFamily=Times New Roman;fontColor=#000000;strokeColor=#000000;labelBackgroundColor=none;fontSize=14;" parent="1" edge="1">
                    <mxGeometry width="80" relative="1" as="geometry">
                        <mxPoint x="280.9999999999999" y="292" as="sourcePoint"/>
                        <mxPoint x="439" y="292" as="targetPoint"/>
                    </mxGeometry>
                </mxCell>
                <mxCell id="14" value="Запрос пользователя" style="html=1;verticalAlign=bottom;endArrow=block;fontFamily=Times New Roman;fontColor=#000000;strokeColor=#000000;labelBackgroundColor=none;fontSize=14;exitX=0.932;exitY=0.354;exitDx=0;exitDy=0;exitPerimeter=0;" parent="1" source="11" target="13" edge="1">
                    <mxGeometry width="80" relative="1" as="geometry">
                        <mxPoint x="457" y="306" as="sourcePoint"/>
                        <mxPoint x="570" y="306" as="targetPoint"/>
                    </mxGeometry>
                </mxCell>
                <mxCell id="15" value="Ответ БД" style="html=1;verticalAlign=bottom;endArrow=open;dashed=1;endSize=8;labelBackgroundColor=none;strokeColor=#000000;fontFamily=Times New Roman;fontSize=14;fontColor=#000000;exitX=-0.007;exitY=0.512;exitDx=0;exitDy=0;exitPerimeter=0;" parent="1" edge="1">
                    <mxGeometry relative="1" as="geometry">
                        <mxPoint x="577.9300000000001" y="357.86400000000003" as="sourcePoint"/>
                        <mxPoint x="448" y="358" as="targetPoint"/>
                    </mxGeometry>
                </mxCell>
                <mxCell id="16" value="Запрос задачи" style="html=1;verticalAlign=bottom;endArrow=block;fontFamily=Times New Roman;fontColor=#000000;strokeColor=#000000;labelBackgroundColor=none;fontSize=14;entryX=0.144;entryY=0.676;entryDx=0;entryDy=0;entryPerimeter=0;" parent="1" target="13" edge="1">
                    <mxGeometry width="80" relative="1" as="geometry">
                        <mxPoint x="448" y="403" as="sourcePoint"/>
                        <mxPoint x="569" y="403" as="targetPoint"/>
                    </mxGeometry>
                </mxCell>
                <mxCell id="17" value="Ответ БД&lt;br style=&quot;font-size: 14px;&quot;&gt;(load tasks)" style="html=1;verticalAlign=bottom;endArrow=open;dashed=1;endSize=8;labelBackgroundColor=none;strokeColor=#000000;fontFamily=Times New Roman;fontSize=14;fontColor=#000000;exitX=0.068;exitY=0.838;exitDx=0;exitDy=0;exitPerimeter=0;" parent="1" edge="1">
                    <mxGeometry relative="1" as="geometry">
                        <mxPoint x="578.68" y="459.836" as="sourcePoint"/>
                        <mxPoint x="448" y="460" as="targetPoint"/>
                    </mxGeometry>
                </mxCell>
                <mxCell id="18" value="" style="edgeStyle=orthogonalEdgeStyle;align=left;spacingLeft=2;endArrow=block;rounded=0;labelBackgroundColor=none;strokeColor=#000000;fontFamily=Arial;fontColor=#000000;spacing=1;html=1;fontSize=7;" parent="1" edge="1">
                    <mxGeometry x="-0.0323" relative="1" as="geometry">
                        <mxPoint x="588" y="315.5" as="sourcePoint"/>
                        <Array as="points">
                            <mxPoint x="618" y="315.5"/>
                            <mxPoint x="618" y="342.5"/>
                        </Array>
                        <mxPoint x="588" y="342.5" as="targetPoint"/>
                        <mxPoint as="offset"/>
                    </mxGeometry>
                </mxCell>
                <mxCell id="19" value="" style="edgeStyle=orthogonalEdgeStyle;align=left;spacingLeft=2;endArrow=block;rounded=0;labelBackgroundColor=none;strokeColor=#000000;fontFamily=Arial;fontColor=#000000;spacing=1;html=1;fontSize=7;" parent="1" edge="1">
                    <mxGeometry x="-0.0323" relative="1" as="geometry">
                        <mxPoint x="588" y="415" as="sourcePoint"/>
                        <Array as="points">
                            <mxPoint x="618" y="415"/>
                            <mxPoint x="618" y="442"/>
                        </Array>
                        <mxPoint x="588" y="441.99999999999994" as="targetPoint"/>
                        <mxPoint as="offset"/>
                    </mxGeometry>
                </mxCell>
                <mxCell id="20" value="Данные о задаче" style="html=1;verticalAlign=bottom;endArrow=open;dashed=1;endSize=8;labelBackgroundColor=none;strokeColor=#000000;fontFamily=Times New Roman;fontSize=14;fontColor=#000000;" parent="1" source="11" edge="1">
                    <mxGeometry relative="1" as="geometry">
                        <mxPoint x="399" y="468" as="sourcePoint"/>
                        <mxPoint x="281" y="468" as="targetPoint"/>
                    </mxGeometry>
                </mxCell>
                <mxCell id="21" value="Данные о задаче" style="html=1;verticalAlign=bottom;endArrow=open;dashed=1;endSize=8;labelBackgroundColor=none;strokeColor=#000000;fontFamily=Times New Roman;fontSize=14;fontColor=#000000;" parent="1" edge="1">
                    <mxGeometry relative="1" as="geometry">
                        <mxPoint x="265" y="479" as="sourcePoint"/>
                        <mxPoint x="142" y="479" as="targetPoint"/>
                    </mxGeometry>
                </mxCell>
            </root>
        </mxGraphModel>
    </diagram>
</mxfile>